<?xml version="1.0" encoding="UTF-8"?>
<svg width="200" height="200" version="1.1" viewBox="0 0 52.917 52.917" xmlns="http://www.w3.org/2000/svg">
<rect width="52.917" height="52.917" fill="#65af00" stroke-width="1.0538"/>
<path d="m32.41 1.41q2.2352 0 3.7592 1.1176 1.5748 1.0668 1.9304 2.54-0.2032 0.9652-0.8636 1.5748-0.6096 0.5588-1.3716 0.5588-1.2192 0-2.1336-0.6096-0.8636-0.6096-1.8796-1.9304l-0.8636-1.3208q-1.6764 1.016-3.0988 3.4036-1.3716 2.3876-2.2352 7.2644-0.0508 0.2032-0.1016 0.4064 0 0.2032-0.0508 0.4064h9.0932l0.508-0.0508 2.8448-6.858h3.6576l-1.4732 6.9088h5.842l-0.4572 2.9972-5.9436-0.2032-3.048 14.529q-0.4064 1.778-0.4064 2.54 0 0.5588 0.3048 0.8636 0.3556 0.254 0.762 0.254 1.5748 0 4.3688-3.4036l1.3716 1.016q-1.016 1.5748-2.4384 3.0988-1.3716 1.4732-3.0988 2.4384-1.6764 0.9144-3.6068 0.9144-1.4224 0-2.3876-0.762t-0.9652-2.286q0-0.8128 0.1524-1.8796t0.4064-2.4892l3.2512-14.935h-4.5212v-0.0508h-4.6228q-0.76199 4.9276-1.524 9.9568-0.762 4.9784-1.6256 9.652-0.762 3.8608-1.9304 6.7056-1.1176 2.8956-3.0988 4.826-1.5748 1.524-3.2004 2.1844-1.6256 0.7112-3.0988 0.7112-2.032 0-3.556-0.8636-1.5748-0.8636-2.2352-2.6416 0.2032-1.016 0.9144-1.7272 0.7112-0.6604 1.8288-0.6604 1.1684 0 2.1336 0.6604 0.9652 0.7112 1.778 1.778l0.8636 1.0668q0.4572-0.508 0.9144-1.1684 0.508-0.6096 0.9144-1.4224 0.8636-1.6256 1.4224-3.8608 0.6096-2.2352 1.2192-5.588 0.8128-4.9276 1.4732-9.7028 0.7112-4.826 1.4732-9.906h-4.5212l0.4572-2.1844 4.5212-0.4572q1.1684-6.5024 4.4704-9.9568t7.7216-3.4544z" fill="#fff"/>
</svg>
